<?xml version="1.0" encoding="utf-8"?>
<!-- Generator: Adobe Illustrator 24.1.1, SVG Export Plug-In . SVG Version: 6.00 Build 0)  -->
<svg version="1.1" id="レイヤー_1" xmlns="http://www.w3.org/2000/svg" xmlns:xlink="http://www.w3.org/1999/xlink" x="0px"
	 y="0px" viewBox="0 0 111 28" style="enable-background:new 0 0 111 28;" xml:space="preserve">
<style type="text/css">
	.st0{fill:#3474B9;}
	.st1{fill:#FFFFFF;}
	.st2{fill:#898989;}
	.st3{font-family:'KozGoPr6N-Bold-90ms-RKSJ-H';}
	.st4{font-size:23.7405px;}
</style>
<g>
	<rect x="1" y="3.1" class="st0" width="31.5" height="21.8"/>
	<g>
		<path class="st1" d="M12.6,10.1L22.8,8c2.3-0.5,5.7-1,9.6-0.1c-1.3-1-5.1-2.5-6.7-2.8c-1.2-0.2-2.6-0.3-4.8,0.3l-11,2.3
			c-3,0.6-7.1,0.1-8.4-0.1C2.1,8.4,8.6,11.1,12.6,10.1z"/>
		<path class="st1" d="M32.4,11.8c-1.3-1-5.1-2.5-6.7-2.8c-1.2-0.2-2.6-0.3-4.8,0.3l-11,2.3c-3,0.6-7.1,0.1-8.4-0.1
			C2,12.2,6.3,14,10,14.2l1.3,2l-1.4,0.3c-3,0.6-7.1,0.1-8.4-0.1c0.6,0.8,7.2,3.5,11.1,2.5l10.2-2.1c2.3-0.5,5.7-1,9.6-0.1
			c-1.3-1-5.1-2.5-6.7-2.8c-0.5-0.1-1.1-0.2-1.7-0.2L22.7,12l0.1,0C25.1,11.5,28.5,10.9,32.4,11.8z M20.6,14.3l-6,1.3l-1.1-1.7
			l6-1.2L20.6,14.3z"/>
		<path class="st1" d="M20.8,18.2l-11,2.3c-3,0.6-7.1,0.1-8.4-0.1c0.6,0.8,7.2,3.5,11.1,2.5l10.2-2.1c2.3-0.5,5.7-1,9.6-0.1
			c-1.3-1-5.1-2.5-6.7-2.8C24.5,17.7,23,17.6,20.8,18.2z"/>
	</g>
</g>
<text transform="matrix(1 0 0 1 38.6389 23.2438)" class="st2 st3 st4">兵庫県</text>
</svg>
